# xmcd
#
# Track frame offsets:
#	150
#	13035
#	22867
#	35122
#	46327
#	55766
#	70297
#	79925
#	90760
#	103882
#	114686
#	125536
#	142669
#	152066
#	167881
#	181875
#
# Disc length: 2637 seconds
#
# Revision: 5
# Processed by: cddbd v1.5.2PL0 Copyright (c) Steve Scherf et al.
# Submitted via: audiograbber 1.83.01
#
DISCID=cb0a4b10
DTITLE=Various Artist - Elite Country [Disc 3]
DYEAR=2002
DGENRE=Country
TTITLE0=John Williamson - Old Man Emu
TTITLE1=Ray Price - Make The World Go Away
TTITLE2=Frankie Laine - High Noon
TTITLE3=Johnny Cash - Oh Lonesome Me
TTITLE4=Skeeter Davis - Turn Your Radio On
TTITLE5=Loretta Lynn - Coal Miner's Daughter
TTITLE6=Dave Dudley - Truck Drivin' Son Of A Gun
TTITLE7=The Fendermen - Mule Skinner Blues
TTITLE8=Bobby Helms - My Special Angel
TTITLE9=Bill and Boyd - Put Another Log On The Fire
TTITLE10=Johnny Chester - The World's Greatest Mum
TTITLE11=The Hawking Brothers - Me And Bobby McGee
TTITLE12=Liv Maessen - Snow Bird
TTITLE13=Cash Backman - My Girl Bill
TTITLE14=Matt Flinders - By The Time I Get To Phoenix
TTITLE15=Joe South - Games People Play
EXTD=
EXTT0=
EXTT1=
EXTT2=
EXTT3=
EXTT4=
EXTT5=
EXTT6=
EXTT7=
EXTT8=
EXTT9=
EXTT10=
EXTT11=
EXTT12=
EXTT13=
EXTT14=
EXTT15=
PLAYORDER=
